<svg width="400" height="400" viewBox="0 0 400 400" fill="none" xmlns="http://www.w3.org/2000/svg">
<path d="M380 26.6667H333.333V6.66667C333.333 2.98 330.353 0 326.667 0H280C276.313 0 273.333 2.98 273.333 6.66667V26.6667H126.667V6.66667C126.667 2.98 123.687 0 120 0H73.3333C69.6467 0 66.6667 2.98 66.6667 6.66667V26.6667H20C16.3133 26.6667 13.3333 29.6467 13.3333 33.3333V106.667V393.333C13.3333 397.02 16.3133 400 20 400H380C383.687 400 386.667 397.02 386.667 393.333V106.667V33.3333C386.667 29.6467 383.687 26.6667 380 26.6667ZM286.667 13.3333H320V33.3333V53.3333H286.667V33.3333V13.3333ZM80 13.3333H113.333V33.3333V53.3333H80V33.3333V13.3333ZM26.6667 40H66.6667V60C66.6667 63.6867 69.6467 66.6667 73.3333 66.6667H120C123.687 66.6667 126.667 63.6867 126.667 60V40H273.333V60C273.333 63.6867 276.313 66.6667 280 66.6667H326.667C330.353 66.6667 333.333 63.6867 333.333 60V40H373.333V100H26.6667V40ZM26.6667 386.667V113.333H373.333V386.667H26.6667Z" fill="var(--fill-b, #fff)"/>
<path d="M253.333 153.333H206.667H193.333H146.667H133.333H73.3333V213.333V226.667V273.333V286.667V346.667H133.333H146.667H193.333H206.667H253.333H266.667H326.667V286.667V273.333V226.667V213.333V153.333H266.667H253.333ZM206.667 166.667H253.333V213.333H206.667V166.667ZM253.333 273.333H206.667V226.667H253.333V273.333ZM146.667 226.667H193.333V273.333H146.667V226.667ZM146.667 166.667H193.333V213.333H146.667V166.667ZM86.6667 166.667H133.333V213.333H86.6667V166.667ZM86.6667 226.667H133.333V273.333H86.6667V226.667ZM133.333 333.333H86.6667V286.667H133.333V333.333ZM193.333 333.333H146.667V286.667H193.333V333.333ZM253.333 333.333H206.667V286.667H253.333V333.333ZM313.333 333.333H266.667V286.667H313.333V333.333ZM313.333 273.333H266.667V226.667H313.333V273.333ZM313.333 166.667V213.333H266.667V166.667H313.333Z" fill="var(--fill-b, #fff)"/>
</svg>
