<svg xmlns="http://www.w3.org/2000/svg" xmlns:xlink="http://www.w3.org/1999/xlink" style="width: 0; height: 0; visibility: hidden; position: absolute;" aria-hidden="true"><symbol  viewBox='0 0 400 400' id='app'>
    <path d="M136.9 195.5a96.6 96.6 0 0137-76l-34.5-55.3A161.8 161.8 0 0078.5 150a58.1 58.1 0 011.8 96.7c11 33.1 32.5 61.5 60.5 81.1l32.1-57a96.4 96.4 0 01-36-75.3z" fill="var(--fill-b, #fff)"></path><path d="M89 199a41.8 41.8 0 11-83.8-.1 41.8 41.8 0 0183.7 0zm234.9 101a57 57 0 0126.9 6.7 161 161 0 0044-100l-65-1.2A96.7 96.7 0 01194.6 284l-32.3 56.5a161 161 0 00103.6 13.3 58.1 58.1 0 0158-53.8z" fill="var(--fill-b, #fff)"></path><path d="M365.7 358.2a41.8 41.8 0 11-83.7 0 41.8 41.8 0 0183.7 0zM355.2 89.3a58.1 58.1 0 01-91.5-52.5 160.4 160.4 0 00-102 14l32 56.6a96.7 96.7 0 01136 76.9l64.9-2a160.8 160.8 0 00-39.4-93z" fill="var(--fill-b, #fff)"></path><path d="M363.5 41.8a41.8 41.8 0 11-83.6.1 41.8 41.8 0 0183.6 0z" fill="var(--fill-b, #fff)"></path>
  </symbol><symbol  viewBox='0 0 400 400' id='chess_horse'>
    <path d="M312 113.3a25.8 25.8 0 00-10.8-18.9L262 66.5a30.9 30.9 0 00-15.3-24l-12.6-7.3-3.3-26c-.4-3.8-2.8-6.8-6.2-8.3-3.4-1.5-7.3-1-10.3 1.1l-25.7 18.6A189 189 0 0088 187.9c0 37.9 11 74.2 31.7 105.3l-21.9 20.6a19 19 0 00-5.9 13.7V380c0 11 9 20 20 20h153a20 20 0 0020.1-20v-52.5a19 19 0 00-5.9-13.7l-19.3-18.2a66.2 66.2 0 0020.8-52.6 48 48 0 00-33-41.6c-33.2-12.8-42.2-35.5-44.7-45.7 13 2.5 26.7.1 38.5-7.2a11.7 11.7 0 0112.8.3l8.2 5.7a20.6 20.6 0 0018.7 2.6 20.7 20.7 0 0012.9-12.8l10.5-10.5a25.8 25.8 0 007.5-20.5zM143 69c-7.3 12.4-14.3 28-18.8 47l-7.3-8.2c7-14 15.7-27 26.1-38.8zm-30.8 48.8l9.5 10.8c-1.2 7.8-2 16-2.3 24.9l-15-13.1a179 179 0 017.8-22.6zm-10.5 33.7l17.7 15.5v1.3c.4 8 1.4 15.5 2.9 22.6l-24-14.2c.6-8.5 1.7-17 3.4-25.2zM98 188.3l28 16.7c2.3 7.1 5 13.9 8.3 20.2l-35-15.9c-.8-6.9-1.3-14-1.3-21zm3 33l42 19a172 172 0 0016 20.8L107 244c-2.4-7.4-4.4-15-5.8-22.7zm10.4 34.9L175 277c6.3 5.6 12.5 10.3 18.1 14.3h-62.6l-.7-1.4c-7.4-10.6-13.6-22-18.4-33.8zM274.9 380a10 10 0 01-10 9.8H112a9.9 9.9 0 01-9.8-9.8v-53H275v53zm-7.4-63.2h-158l16.1-15.2h124.6l1-.1 16.3 15.3zm29.6-190l-12.1 12-.5 1.7c-1 3.3-3.4 5.9-6.7 7-3.3 1.2-6.8.7-9.6-1.3l-8.2-5.7a21.7 21.7 0 00-24-.6 42.8 42.8 0 01-42.2 2 42.8 42.8 0 01-23.6-35L169 93.2a5 5 0 00-10.1.8l1 13.5a52.9 52.9 0 0032 44.6c.8 7 7 41.3 52 58.7 20.2 7.8 25.5 22.3 26.5 33a55 55 0 01-21.8 47.5h-37c-24-14.5-79.1-55-82-123.5-2-51 15.4-86 30.5-106.2 16.4-22.1 60-51.5 60-51.5h.4l.2.2 3.6 28.6a5 5 0 002.5 3.8l14.7 8.5a20.7 20.7 0 0110.4 18 5 5 0 002.1 4l41.2 29.4a15.7 15.7 0 011.8 24.1z" fill="var(--fill-b, #fff)"></path><path d="M240.3 73.5l-11.7-7.8A5 5 0 00223 74l1.3.9a8 8 0 007.5 10.7 8 8 0 006.1-3 5 5 0 002.4-9.2z" fill="var(--fill-b, #fff)"></path>
  </symbol><symbol  viewBox='0 0 400 400' id='contract'>
    <path d="M389.7 125.9a35.2 35.2 0 00-49.7 0l-35.3 35.3V68.3a35 35 0 00-10.3-24.9l-33.1-33.1A35 35 0 00236.4 0H35.2A35.2 35.2 0 000 35.2v329.6A35.2 35.2 0 0035.2 400h234.3a35.2 35.2 0 0035.2-35.2V260.6l85-85a35.1 35.1 0 000-49.7zM234.4 23.4c2.2 0 6.5-.3 10.3 3.5L277.8 60c3.8 3.7 3.5 7.8 3.5 10.3h-47V23.4zm46.9 341.4c0 6.5-5.3 11.8-11.8 11.8H35.2c-6.5 0-11.7-5.3-11.7-11.8V35.2c0-6.5 5.2-11.8 11.7-11.8H211V82c0 6.5 5.2 11.8 11.7 11.8h58.6v90.8l-34.6 34.6-16.6 16.6a11.7 11.7 0 00-2.8 4.6L210.7 290a11.7 11.7 0 0014.8 14.8l49.8-16.6c1.7-.5 3.3-1.5 4.5-2.8l1.5-1.4v80.7zM255 244.1l16.6 16.6-6.4 6.3-24.8 8.3 8.3-24.9 6.3-6.3zm33.1 0l-16.5-16.6 56.3-56.4 16.6 16.6-56.4 56.4zm85-85l-12 12-16.6-16.6 12-12a11.7 11.7 0 0116.6 16.5z" fill="var(--fill-b, #fff)"></path><path d="M222.7 117.2h-164a11.7 11.7 0 100 23.4h164a11.7 11.7 0 000-23.4zM175.8 164H58.6a11.7 11.7 0 000 23.5h117.2a11.7 11.7 0 000-23.4zm0 47H58.6a11.7 11.7 0 100 23.4h117.2a11.7 11.7 0 000-23.5zm0 46.8H58.6a11.7 11.7 0 000 23.4h117.2a11.7 11.7 0 000-23.4zm46.9 71.9h-70.3a11.7 11.7 0 100 23.4h70.3a11.7 11.7 0 000-23.4z" fill="var(--fill-b, #fff)"></path>
  </symbol><symbol  viewBox='0 0 400 400' id='envelope'>
    <g clip-path="url(#clip0)" fill="var(--fill-b, #fff)"><path d="M351.2 47.8H48.9A49 49 0 000 96.8v206.5a49 49 0 0049 48.9h302c27 0 49-22 49-49V96.9a49 49 0 00-48.8-49zm26.5 255.5a26.6 26.6 0 01-26.5 26.6H48.9c-14.6 0-26.6-12-26.6-26.6V96.8c0-14.7 12-26.6 26.6-26.6h302.2c14.6 0 26.6 12 26.6 26.6v206.5z"></path><path d="M252.3 197.4l97.8-87.7a11.2 11.2 0 00-15-16.6L200.2 214 174 190.7l-.2-.2-1.8-1.6L64.8 93a11.2 11.2 0 00-15.8.9 11.2 11.2 0 001 15.8l98.9 88.5-98.6 92.3a11.2 11.2 0 0015.3 16.3l100-93.6 27.2 24.3a11.2 11.2 0 0015 0l27.8-25 99.5 94.4c2.2 2.1 5 3 7.7 3a11.2 11.2 0 007.7-19.2l-98.2-93.3z"></path></g><defs><clippath id="clip0"><path fill="#fff" d="M0 0h400v400H0z"></path></clippath></defs>
  </symbol><symbol  viewBox='0 0 400 400' id='globe'>
    <g clip-path="url(#clip0)" fill="var(--fill-b, #fff)"><path d="M301.7 386.4H125.4a6.8 6.8 0 000 13.6h176.3a6.8 6.8 0 000-13.6z"></path><path d="M179.7 359.3V400h67.8v-40.7h-67.8zm54.2 27.1h-40.7V373H234v13.5zm126.8-92.9l-33.9-33.9a6.8 6.8 0 10-9.6 9.6l34 33.9a6.8 6.8 0 109.5-9.6z"></path><path d="M366.2 244.1c-3.1-2-7.3-1-9.3 2.1a168.9 168.9 0 01-143.3 79.2C120 325.4 44 249.4 44 156c0-58.3 29.6-112 79.2-143.3A6.8 6.8 0 00116 1.2a182.3 182.3 0 00-85.5 154.7 183.2 183.2 0 00337.8 97.6c2-3.2 1.1-7.4-2-9.4z"></path><path d="M226.6 324.9c-9.6.7-16.1.7-26 0l-7.4-.6V373H234v-48.6l-7.3.6zm-6.3 34.4h-13.5v-20.5c4.7.2 8.8.2 13.5 0v20.5zM213.6 0c-86 0-156 70-156 156s70 155.9 156 155.9 155.9-70 155.9-156S299.5 0 213.5 0zm0 298.3A142.5 142.5 0 0171.2 156a142.4 142.4 0 11142.4 142.4z"></path><path d="M109.9 42.7l-34-34a6.8 6.8 0 10-9.5 9.7l33.9 33.9a6.8 6.8 0 109.6-9.6zM279 14.4L263.8 12l4.5 10.9c5.4 12.8 10 33.8 3.1 38.8L255.7 68a35 35 0 00-21.8 28.5v.8a4.2 4.2 0 01-3.6 3.6c-1.6.4-3.9 0-5.2-2.2l-6.7-11.2a13 13 0 00-22.8 1.1 173 173 0 00-15.5 47 25 25 0 002.4 14l7.9 15.7c2.7 5.5 7 10.2 12.3 13.5a89 89 0 0119.6 16.3c6.5 7.9 15.4 13 24.8 14.5-.4 12.7.5 33.6 9.1 42.8 3 3.2 6.8 5 11 5.1.8.1 2.1.3 3.9.3a33 33 0 0021-7.5c10.8-8.9 16.3-24.4 16.4-46.3l9.7-43.7 3.7 6.2a20.7 20.7 0 0030 5.9l17.6-13.2V156c0-60.5-35.5-116-90.5-141.5zm64.8 147.2a7 7 0 01-10.3-2l-7-11.7c-2.4-3.9-6.7-6-11.2-5.2-4.4.7-8 4-9 8.4L295.2 202l-.2 1.5c0 17.6-3.9 30.2-11.2 36.4-6.7 5.6-14.4 4.4-14.6 4.4l-1.3-.1c-.5 0-1-.1-1.7-.9-4.2-4.5-6.3-20.2-5.2-38.3a7.8 7.8 0 00-7.8-8.3c-7.6 0-15-3.7-20.4-10-6.5-8-16-14.9-22.8-19.1-3.2-2-5.8-4.9-7.4-8.2l-7.8-15.6c-1-2-1.4-4.2-1.2-6.4 1.7-13.8 9.2-31.7 13.9-41.8l6.1 10.3c4 6.7 11.7 10 19.6 8.5a17.7 17.7 0 0014.2-15l.1-1.1c1-8 6-14.7 13.3-17.6l16.4-6.5 1-.5c12.9-7.8 11.2-26.5 7.8-40.3a143 143 0 0170 119.3l-12 9zM181.6 250l-4.1-4.1c-5-5-10.8-9-17.3-11.7l-21-9a22.9 22.9 0 01-13.8-21V194a19 19 0 00-25.7-18l-38.3 14.4 1.6 6a156.8 156.8 0 00120 112.4l6.2 1.2 4.2-14.7c4.6-16.2 0-33.6-11.8-45.4zm-1.3 41.7l-.7 2.5a143.3 143.3 0 01-101.8-95.4l26.7-10c1.7-.6 3.5-.4 5 .7 1.5 1 2.4 2.6 2.4 4.5v10.2c0 14.6 8.6 27.7 22 33.5l21 9c4.9 2 9.2 5 13 8.8l4.1 4a32.7 32.7 0 018.3 32.2z"></path><path d="M142.5 23.5a6.8 6.8 0 00-8.8-1.5A155.7 155.7 0 0058 147.6a6.8 6.8 0 009.2 6.7l42-16.6a20.6 20.6 0 0011.9-25.6 7 7 0 011.7-7.1l19.5-19.5a35 35 0 0010.3-25v-8.8c0-10.2-3.5-20.2-10-28.2zm-3.5 37c0 5.8-2.3 11.3-6.4 15.4l-19.5 19.5a20.4 20.4 0 00-5 21 7 7 0 01-4 8.7l-31.7 12.5c5.2-41 28.1-77.7 62.9-100.6a31 31 0 013.7 14.7v8.8z"></path></g><defs><clippath id="clip0"><path fill="#fff" d="M0 0h400v400H0z"></path></clippath></defs>
  </symbol><symbol  viewBox='0 0 400 400' id='headphones'>
    <g clip-path="url(#clip0)"><path d="M336.8 152.1v-15.4c0-36.8-13-71-36.6-96.4A126.4 126.4 0 00206.4 0h-12.7c-36.3 0-69.5 14.3-93.7 40.3a140.5 140.5 0 00-36.7 96.4v15.4a55.2 55.2 0 00-51.4 55v24c0 30.3 24.7 55 55 55h31a10 10 0 0010.1-10V162c0-5.6-4.5-10.2-10-10.2H83.4v-15.2c0-66.4 47.4-116.5 110.2-116.5h12.6c62.9 0 110.2 50 110.2 116.5V152H302c-5.6 0-10.1 4.6-10.1 10.1v114a10 10 0 0010 10h14.2c-4.1 52.7-40.4 64.8-57.2 67.6a35.5 35.5 0 00-33.7-24.4H200a35.4 35.4 0 000 70.8h25.3c16.3 0 30-11 34.1-26a95.4 95.4 0 0034.2-11.7c18.3-10.7 39.9-32.5 42.7-76.3a55.1 55.1 0 0051.7-55v-24a55 55 0 00-51.3-54.9zM88 265.9H67.1A34.9 34.9 0 0132.2 231v-24a34.9 34.9 0 0134.9-35h21v93.8zm137.4 114h-25.3a15.2 15.2 0 110-30.5h25.3a15.2 15.2 0 110 30.4zM368 231a34.9 34.9 0 01-34.8 34.9h-21V172h21a34.9 34.9 0 0134.8 35v24z" fill="var(--fill-b, #fff)"></path></g><defs><clippath id="clip0"><path fill="#fff" d="M0 0h400v400H0z"></path></clippath></defs>
  </symbol><symbol  viewBox='0 0 400 400' id='lamp'>
    <g clip-path="url(#clip0)" fill="var(--fill-b, #fff)"><path d="M279 83.9a110.3 110.3 0 00-77.4-33c-29.7-.4-57.9 11-79.2 32a111 111 0 004.8 162.6 79.6 79.6 0 0127.6 59.7v56a38.8 38.8 0 0038.8 38.8h13a38.8 38.8 0 0038.8-38.8v-55.3a79 79 0 0127.1-60 110.9 110.9 0 006.6-162zM200 218h-5a5.1 5.1 0 010-10.3c2.8 0 5.1 2.3 5.1 5.2v5zm.1 46.4c4.3 0 7.8 3.5 7.8 7.8V299h-15.6v-26.6c0-4.3 3.5-7.8 7.8-7.8zm29.7 50V326h-59.4v-11.5h59.4zm-59.4 27.1h59.4V353h-59.4v-11.5zm36.2 42.8h-13a23.2 23.2 0 01-21.9-15.6h56.8a23.2 23.2 0 01-21.9 15.6zM262.3 234a94.4 94.4 0 00-32.2 64.8h-6.5v-26.6c0-7-3.1-13.2-8-17.5V229c6.4-4.6 10.6-12 10.6-20.4v-12.1a30.2 30.2 0 00-30.2-30.2h-14.1a7.8 7.8 0 000 15.6h14c8.1 0 14.6 6.5 14.6 14.6v2.8a20.8 20.8 0 10-15.6 34.4h5.1V249a23.5 23.5 0 00-23.3 23.4V299h-6.5a95.5 95.5 0 00-32.7-65.2 95.3 95.3 0 11124.8.4z"></path><path d="M201.7 89h-.1a7.8 7.8 0 00-7.9 7.6 8 8 0 007.8 8h.2a7.8 7.8 0 000-15.6zm34.3 9a7.8 7.8 0 10-7.5 13.7 57.4 57.4 0 0129.4 50.1 7.8 7.8 0 1015.7 0A73 73 0 00236 98.1zm-35.9-61.3c4.3 0 7.8-3.5 7.8-7.8V8a7.8 7.8 0 10-15.6 0v21c0 4.3 3.5 7.8 7.8 7.8zM354.2 154H333a7.8 7.8 0 000 15.7h21a7.8 7.8 0 100-15.7zm-287 0H46a7.8 7.8 0 100 15.7h21a7.8 7.8 0 100-15.7zm232.5 96.3a7.8 7.8 0 10-11 11l14.8 15a7.8 7.8 0 1011-11l-14.8-15zM100.6 73.4a7.8 7.8 0 0011 0c3.1-3 3.1-8 0-11l-14.9-15a7.8 7.8 0 00-11 11l14.9 15zm202.9-26l-14.9 15a7.8 7.8 0 0011 11l15-15a7.8 7.8 0 10-11-11zM100.6 250.3l-15 15a7.8 7.8 0 0011.1 11l15-15a7.8 7.8 0 10-11.1-11z"></path></g><defs><clippath id="clip0"><path fill="#fff" d="M0 0h400v400H0z"></path></clippath></defs>
  </symbol><symbol  viewBox='0 0 400 400' id='link'>
    <g clip-path="url(#clip0)" fill="var(--fill-b, #fff)"><path d="M304.3 0a95 95 0 00-67.7 28l-74.5 74.6c5.7-.8 11.4-1.7 17.2-1.7 16 0 31.8 3.1 46.2 9L272 63.3a45.8 45.8 0 0164.6 64.6L253 211.6a46.8 46.8 0 01-64.6 0L153 247a95.4 95.4 0 00135.3 0l83.6-83.6A95.8 95.8 0 00304.3 0z"></path><path d="M174 290.6l-46 46A45.8 45.8 0 0163.4 272l83.6-83.6a46.8 46.8 0 0164.6 0L247 153a98 98 0 00-135.3 0L28 236.6A95.8 95.8 0 00163.4 372l73.5-73.6c-5.3.7-10.7 1.6-16.2 1.6-16.3 0-32-3.3-46.7-9.4z"></path></g><defs><clippath id="clip0"><path fill="#fff" d="M0 0h400v400H0z"></path></clippath></defs>
  </symbol><symbol  viewBox='0 0 400 400' id='location'>
    <path d="M200 0A140.8 140.8 0 0080.4 214.6L192 394.5a11.7 11.7 0 0020-.2l108.8-181.6A140.5 140.5 0 00200 0zm100.7 200.6l-99 165.2-101.4-163.6a117 117 0 0199.7-179 117.5 117.5 0 01100.7 177.4z" fill="var(--fill-b, #fff)"></path><path d="M200 70.3a70.4 70.4 0 10.2 140.8 70.4 70.4 0 00-.2-140.8zm0 117.4a47 47 0 110-94.2 47 47 0 010 94.2z" fill="var(--fill-b, #fff)"></path>
  </symbol><symbol  viewBox='0 0 400 400' id='money-bag'>
    <path d="M213.5 251h-22.9a15 15 0 110-30h40.3a10 10 0 0010-10 10 10 0 00-10-10h-19v-13.9a10 10 0 00-10-10 10 10 0 00-9.9 10V201h-1.4a35 35 0 000 70h22.9a15 15 0 110 30.1h-41a10 10 0 00-10 10 10 10 0 0010 10H192v14.2a10 10 0 0010 10 10 10 0 0010-10v-14.2h2a35 35 0 00-.5-70z" fill="var(--fill-b, #fff)"></path><path d="M352 228.4a286 286 0 00-43.2-69.3 322.2 322.2 0 00-55.4-52.7l42.4-78.6c2-4 1.4-8.8-1.8-11.8a49.7 49.7 0 00-35.6-16A83.7 83.7 0 00226 8.5c-7.5 3-14.5 6-20.3 6-1.7 0-3.2-.2-4.7-.8C181.3 6.5 166 2 151.4 2c-18.7 0-34.6 7.5-50.1 23.4a10 10 0 00-1.2 12.5L146 107c-11.3 8.4-33 26-54.7 52A288.6 288.6 0 0048 228.5a235.8 235.8 0 00-19.8 94.2 77.5 77.5 0 0077.4 77.4h188.8a77.5 77.5 0 0077.4-77.4c0-32.1-6.6-63.8-19.8-94.2zM121.4 33.8c9.7-8.4 18.9-12 30-12 11.8 0 25 4 42.8 10.5a32 32 0 0011.5 2c9.8 0 19-3.8 28-7.5 8.6-3.6 16.7-7 24.6-7 3.8 0 9.2.7 16 5.5l-39.9 74.2H165l-43.5-65.7zm173 346.2H105.6a57.5 57.5 0 01-57.4-57.4c0-53.3 19.5-103.9 58-150.3a304 304 0 0156.4-52.9h74.7c7.5 5.3 32.1 23.6 56.4 53 38.5 46.3 58 96.8 58 150.2a57.3 57.3 0 01-57.3 57.4z" fill="var(--fill-b, #fff)"></path>
  </symbol><symbol  viewBox='0 0 400 400' id='phone'>
    <g clip-path="url(#clip0)" fill="var(--fill-b, #fff)"><path d="M316.1 247.8a39.4 39.4 0 00-28.5-13.1 40.7 40.7 0 00-28.9 13L232 274.3l-6.5-3.4c-3-1.5-5.9-3-8.3-4.5a290 290 0 01-69.5-63.3 171 171 0 01-22.8-36c7-6.3 13.3-12.9 19.6-19.2 2.4-2.3 4.7-4.8 7-7.2 17.8-17.7 17.8-40.7 0-58.4l-23-23-7.8-8c-5-5.3-10.4-10.7-15.9-15.8a40 40 0 00-28.3-12.4 41.4 41.4 0 00-28.7 12.4l-.1.2-28.7 29A61.8 61.8 0 00.6 103.9a148 148 0 0010.8 62.7c13.7 36.9 34.2 71 64.6 107.7a399 399 0 00132.3 103.6c19.4 9.2 45.4 20 74.3 22l5.3.1c19.5 0 36-7 48.7-21l.4-.4c4.4-5.3 9.4-10 14.8-15.2 3.6-3.5 7.3-7.1 11-11a42.1 42.1 0 0012.7-29.1c0-10.5-4.5-20.6-13-29L316 247.8zm30.2 88.9c-3.2 3.5-6.6 6.7-10.3 10.3-5.4 5.2-11 10.7-16.2 16.9a40.7 40.7 0 01-31.8 13.4h-3.9c-25-1.7-48.3-11.5-65.8-19.8a375 375 0 01-124.6-97.6 342.7 342.7 0 01-60.8-101.3c-7.9-21-10.7-37.4-9.5-52.8.9-9.9 4.7-18 11.7-25l28.8-28.9a19 19 0 0112.8-6A18 18 0 0189 52l.3.2a426 426 0 0115.2 15.1l8 8.2 23 23c9 9 9 17.3 0 26.2l-7.2 7.3a440 440 0 01-21.2 20.6l-.4.4c-7.3 7.3-6 14.3-4.4 19.2l.2.7a185 185 0 0027.3 44.5c23.4 28.8 48 51.2 75 68.3 3.5 2.2 7 4 10.4 5.7 3 1.5 6 3 8.4 4.4l1 .6c2.9 1.5 5.6 2.1 8.4 2.1 7 0 11.4-4.4 12.8-5.8l28.9-28.9c2.8-2.8 7.4-6.3 12.7-6.3a17 17 0 0112.2 6.2l.1.1 46.6 46.6c8.7 8.6 8.7 17.4 0 26.4zM216.2 95.1a107 107 0 0158.2 30.3c16 16 26.4 36.1 30.2 58.2 1 5.6 5.8 9.5 11.3 9.5l2-.2c6.2-1 10.3-7 9.3-13.2a130.2 130.2 0 00-36.6-70.5 130.2 130.2 0 00-70.5-36.5c-6.2-1-12 3.1-13.1 9.3-1.1 6.1 3 12.1 9.2 13.1zm183.3 81.3c-7.5-44-28.2-84.1-60.2-116-31.9-32-72-52.7-116-60.2a11.4 11.4 0 10-3.8 22.4 191.8 191.8 0 01103.8 53.8 191.3 191.3 0 0153.8 103.8c1 5.5 5.7 9.4 11.2 9.4.7 0 1.3 0 2-.2 6.1-.9 10.3-6.8 9.2-13z"></path></g><defs><clippath id="clip0"><path fill="#fff" d="M0 0h400v400H0z"></path></clippath></defs>
  </symbol><symbol  viewBox='0 0 400 400' id='responsive'>
    <g clip-path="url(#clip0)" fill="var(--fill-b, #fff)"><path d="M33.3 86.7c0-3.7 3-6.7 6.7-6.7h220V66.7H40c-11 0-20 9-20 20V280H6.7C3 280 0 283 0 286.7v20C0 314 6 320 13.3 320h120v-13.3h-120v-13.4h120V280h-100V86.7zM300 200h13.3v13.3H300V200zm-6.7-13.3h80c11 0 20-9 20-20V20c0-11-9-20-20-20h-80c-11 0-20 9-20 20v146.7c0 11 9 20 20 20zm80-13.4h-80c-3.6 0-6.6-3-6.6-6.6v-20H380v20c0 3.6-3 6.6-6.7 6.6zm-80-160h80c3.7 0 6.7 3 6.7 6.7v113.3h-93.3V20c0-3.7 3-6.7 6.6-6.7z"></path><path d="M326.7 153.3H340v13.4h-13.3v-13.4zm-146.7 0a53.4 53.4 0 00-53.3-53.3c-3.7 0-6.7 3-6.7 6.7v46.6c0 3.7 3 6.7 6.7 6.7h46.6c3.7 0 6.7-3 6.7-6.7zm-46.7-6.6v-32.8a40 40 0 0132.8 32.8h-32.8z"></path><path d="M153.3 166.7h-40v-40c0-3.7-3-6.7-6.6-6.7a53.3 53.3 0 1053.3 53.3c0-3.6-3-6.6-6.7-6.6zm-46.6 46.6A40 40 0 01100 134v39.4c0 3.7 3 6.7 6.7 6.7H146a40 40 0 01-39.4 33.3zm100-113.3h-13.4c-1.7 0-3.4.7-4.7 2l-13.3 13.3 9.4 9.4 11.4-11.4h10.6V100zm13.3 0h26.7v13.3H220V100zm0 26.7h26.7V140H220v-13.3zm-173.3 120h80V260h-80v-13.3zm120-60h40V200h-40v-13.3zm46.6 6.6a20 20 0 1040 0 20 20 0 00-40 0zm20-6.6a6.7 6.7 0 110 13.3 6.7 6.7 0 010-13.3zm93.4-153.4h40v13.4h-40V33.3zm0 26.7h40v13.3h-40V60zm0 26.7H340V100h-13.3V86.7zm26.6 0h13.4V100h-13.4V86.7zm26.7 140H166.7c-11 0-20 9-20 20V380c0 11 9 20 20 20H380c11 0 20-9 20-20V246.7c0-11-9-20-20-20zM160 380V246.7c0-3.7 3-6.7 6.7-6.7h180v146.7h-180c-3.7 0-6.7-3-6.7-6.7zm226.7 0c0 3.7-3 6.7-6.7 6.7h-20V240h20c3.7 0 6.7 3 6.7 6.7V380z"></path><path d="M366.7 306.7H380V320h-13.3v-13.3zM320 353.3V280h-13.3v73.3h-13.4V300H280v53.3h-13.3v-40h-13.4v40H240v-60h-13.3v60h-13.4v-26.6H200v26.6h-13.3v-86.6h-13.4V360c0 3.7 3 6.7 6.7 6.7h153.3v-13.4H320z"></path></g><defs><clippath id="clip0"><path fill="#fff" d="M0 0h400v400H0z"></path></clippath></defs>
  </symbol><symbol  viewBox='0 0 400 400' id='shopping-bag'>
    <g clip-path="url(#clip0)" fill="var(--fill-b, #fff)"><path d="M359.8 346.7l-23-259.4c-.4-5.2-4.7-9-10-9h-48.5A78.5 78.5 0 00200 0a78.5 78.5 0 00-78.3 78.2H73.2a10 10 0 00-10 9l-23 259.5v.9c0 28.9 26.6 52.4 59.2 52.4h201.2c32.6 0 59.2-23.5 59.2-52.4v-1zM200 19.9a58.5 58.5 0 0158.5 58.3h-117A58.5 58.5 0 01200 20zM300.6 380H99.4c-21.5 0-39-14.3-39.3-32L82.3 98h39.4v35a10 10 0 0010 10 10 10 0 009.8-10V98h117v35a10 10 0 009.9 10 10 10 0 0010-10V98h39.3L340 348c-.2 17.7-17.8 32-39.3 32z"></path><path d="M241.3 206.8l-58.6 58.7-24-24a10 10 0 10-14 14.1l31 31a10 10 0 0014 0l65.7-65.7a10 10 0 10-14-14z"></path></g><defs><clippath id="clip0"><path fill="#fff" d="M0 0h400v400H0z"></path></clippath></defs>
  </symbol><symbol  viewBox='0 0 400 400' id='shopping-cart'>
    <g clip-path="url(#clip0)" fill="var(--fill-b, #fff)"><path d="M212.8 180.1a10 10 0 0014 0l61-61a10 10 0 10-14-14l-54 54-21.8-21.7a10 10 0 10-14 14l28.8 28.7z"></path><path d="M119.6 262.6h221.8c24.5 0 44.4-20 44.4-44.4v-93.4a10 10 0 00-10-10 10 10 0 00-9.8 10V218c0 13.6-11 24.6-24.6 24.6H119.6c-13.6 0-24.6-11-24.6-24.6V34.4l-.1-.7-.2-.6v-.3c-.2-.3-.3-.4-.3-.7l-.1-.2-.3-.6-.1-.3-.3-.5-.2-.4-.3-.4-.3-.4-.3-.2-.4-.5-.2-.2-.5-.4-.3-.2-.4-.4c-.2-.1-.5-.2-.6-.4l-.2-.1-1-.5L28 .8A9.9 9.9 0 1020.4 19L75 42.2v245.5a44.4 44.4 0 0040.7 44.2 44 44 0 1073.2.2h105a43.8 43.8 0 0036.8 67.9 44 44 0 000-87.8H119.6c-13.6 0-24.6-11-24.6-24.5V255c7 4.7 15.5 7.5 24.6 7.5zm56.8 93.5a24.1 24.1 0 11-48.2 0 24.1 24.1 0 0148.2 0zm178.4 0a24.1 24.1 0 11-48.3 0 24.1 24.1 0 0148.3 0z"></path></g><defs><clippath id="clip0"><path fill="#fff" d="M0 0h400v400H0z"></path></clippath></defs>
  </symbol><symbol  viewBox='0 0 400 400' id='support'>
    <path d="M142.7 313.7l10.2-7.1 7.1 10.2-10 7.2-7.2-10.2zm22.7-15.8l85-59.3 7.2 10.2-85 59.3-7.2-10.2z" fill="var(--fill-b, #fff)"></path><path d="M377.3 91.2c-2-7.3-5-14.2-8.7-20.9l9-14.3L344 22.4l-14.4 9a99.3 99.3 0 00-20.8-8.7L305 6.3h-47.3l-4 16.4c-7.2 2-14.1 5-20.8 8.7l-14.3-9L184.9 56l9 14.3a99.4 99.4 0 00-8.7 20.9L168.8 95v12c-3 .8-5.8 2-8.3 3.9l-42.2 31.6c-1 .8-2.4 1.3-3.7 1.3H99.3a43.6 43.6 0 00-30.5-75 43.8 43.8 0 00-26.2 78.7A56.3 56.3 0 006.2 200v168.8a25 25 0 0025 25h362.6V95l-16.5-4zM37.5 112.5a31.3 31.3 0 1162.6 0 31.3 31.3 0 01-62.6 0zM18.7 200a43.8 43.8 0 0143.8-43.8h52c4.1 0 8.1-1.3 11.3-3.7l42.2-31.6c1.8-1.4 4-2.2 6.3-2.2h2.7a10.6 10.6 0 016.4 19l-39.6 30.7a31.4 31.4 0 01-19.2 6.6H75v68.8h25c10.3 0 18.8 8.4 18.8 18.7v56.2a12.5 12.5 0 01-25 0v-37.4c0-7-5.7-12.6-12.5-12.6H37.5A18.8 18.8 0 0118.7 250v-50zm81.3 31.3H87.5v-43.8h37.1c9.7 0 19.3-3.3 26.9-9.2l35.2-27.4c2 5.6 4.3 11 7.2 16.3l-9 14.3 33.6 33.6 14.3-9c4 2.2 8 4 12.3 5.7L131.3 291v-28.5c0-17.2-14-31.3-31.3-31.3zm-43.8 50h25v37.4c0 2.2.4 4.3 1 6.4l-26 18v-61.9zm-37.5 87.4v-93.9a31 31 0 0018.8 6.4h6.3v87.6a12.5 12.5 0 01-25 0zm362.6 12.6H52.8c2.1-3.7 3.5-8 3.5-12.6v-10.3l32-22.4a24.8 24.8 0 0018 7.7 25 25 0 0025-25v-12.5l123.6-86 2.7 11h47.3l4-16.4c7.2-2 14.1-5 20.8-8.7l14.3 9 33.6-33.6-9-14.3a99.3 99.3 0 008.7-20.9l4-1v236zm0-248.8L367 136l-.9 3.7a86.7 86.7 0 01-10 24.4l-2 3.3 7.6 12.4-19.5 19.5-12.4-7.7-3.3 2c-7.6 4.6-15.8 8-24.4 10.1l-3.7 1-3.3 14.2h-27.7l-3.3-14.3-3.7-.9a86.7 86.7 0 01-24.4-10l-3.3-2-12.4 7.6-19.5-19.5 7.7-12.4-2-3.3c-4.4-7.2-7.6-15-9.8-23.1a22.9 22.9 0 00-15.4-34.2V105l14.2-3.4.9-3.7a86.7 86.7 0 0110-24.4l2-3.3-7.6-12.4 19.5-19.5 12.4 7.7 3.3-2c7.6-4.6 15.8-8 24.4-10.1l3.7-1 3.3-14.1h27.7l3.3 14.2 3.7.9a86.7 86.7 0 0124.4 10l3.3 2 12.4-7.6 19.5 19.5-7.7 12.4 2 3.3c4.6 7.6 8 15.8 10.1 24.4l1 3.7 14.1 3.4v27.6z" fill="var(--fill-b, #fff)"></path><path d="M281.3 43.8a75 75 0 10.1 150.1 75 75 0 00-.1-150.2zm0 137.4a62.6 62.6 0 110-125 62.6 62.6 0 010 125z" fill="var(--fill-b, #fff)"></path><path d="M281.3 81.3a37.5 37.5 0 100 75 37.5 37.5 0 000-75zm0 62.5a25 25 0 110-50.1 25 25 0 010 50zm75 212.5h12.4v12.4h-12.4v-12.4zm0-25h12.4v12.4h-12.4v-12.4zm0-25h12.4v12.4h-12.4v-12.4zm-287.5 50h12.5v12.4H68.8v-12.4zm25 0h12.5v12.4H93.8v-12.4zm25 0h12.5v12.4h-12.6v-12.4z" fill="var(--fill-b, #fff)"></path>
  </symbol><symbol  viewBox='0 0 400 400' id='testing'>
    <g clip-path="url(#clip0)" fill="var(--fill-b, #fff)"><path d="M258 276.4v-44.1h13v-13h-77.5v13h13v44.1c-4.4 2-8.4 4.4-12.2 7.2l-39.5-72.3v-30.7h13v-12.9h-13v-19.3c0-3.6-2.8-6.5-6.4-6.5h-6.5v-19.3c0-3.6-2.8-6.5-6.4-6.5H96.8a6.5 6.5 0 00-6.5 6.5v19.3H84a6.5 6.5 0 00-6.5 6.5v19.3h-13v13h13v30.6L3.8 346A34 34 0 000 361.4v6.3A32.3 32.3 0 0032.3 400H200c4.6 0 9-1 13.2-2.9a64.5 64.5 0 0044.9-120.7zm-12.8-44.1v12.9h-25.8v-13h25.8zM215 286.9c2.5-1 4.3-3.4 4.3-6.1V258h25.8v22.7c0 2.7 1.7 5.2 4.3 6a51.6 51.6 0 0132.6 35.8c-5 .2-9.5 2.2-13 5.7l-5.4 5.3a6.5 6.5 0 01-4.5 1.9H257c-1.7 0-3.4-.7-4.6-2l-5.3-5.2a19.2 19.2 0 00-13.7-5.7H231c-5.1 0-10 2-13.6 5.7l-5.4 5.3a6.5 6.5 0 01-4.5 1.9h-2.3a6 6 0 01-4.5-2l-5.4-5.2a19.2 19.2 0 00-13-5.7 51.6 51.6 0 0132.7-35.7zM103.2 129H129v13h-25.8v-13zm-12.9 25.8H142v13H90.3v-13zm-.8 61.2c.6-1 .8-2 .8-3.1v-32.3H142V213c0 1 .3 2.1.8 3l23 42.3c-4.8.2-9.3 2.1-12.8 5.5l-5.3 5.4a6.5 6.5 0 01-4.6 1.9h-2.2a6 6 0 01-4.5-2l-5.4-5.3a19.2 19.2 0 00-13.7-5.6H115c-5.1 0-10 2-13.7 5.6l-5.3 5.4a6.5 6.5 0 01-4.6 1.9h-2.2a6 6 0 01-4.5-2l-5.4-5.3c-3.4-3.4-8-5.3-12.8-5.5l23-42.2zM32.3 387a19.4 19.4 0 01-19.4-19.4v-6.3c0-3.2.8-6.4 2.4-9.3l44.2-81h6.1c1.7 0 3.4.7 4.6 1.9l5.3 5.3c3.7 3.7 8.5 5.7 13.7 5.7h2.2c5.2 0 10-2 13.7-5.7l5.4-5.3a6.5 6.5 0 014.5-2h2.2c1.7 0 3.4.8 4.6 2l5.3 5.3c3.7 3.7 8.6 5.7 13.7 5.7h2.2c5.2 0 10-2 13.7-5.7l5.4-5.3a6.5 6.5 0 014.5-2h6.1l11.7 21.5a64.4 64.4 0 009.3 94.7H32.3zm200 0a51.7 51.7 0 01-51.7-51.6h1.2c1.7 0 3.3.7 4.5 1.9l5.4 5.3c3.6 3.7 8.5 5.7 13.6 5.7h2.3c5.1 0 10-2 13.6-5.7l5.4-5.3a6.5 6.5 0 014.5-2h2.3c1.7 0 3.3.8 4.5 2l5.4 5.3a19 19 0 0013.7 5.7h2.2c5.1 0 10-2 13.7-5.7l5.3-5.3a6.5 6.5 0 014.6-2h1a51.7 51.7 0 01-51.5 51.7z"></path><path d="M45.2 335.5a19.4 19.4 0 100 38.7 19.4 19.4 0 000-38.7zm0 25.8a6.5 6.5 0 110-13 6.5 6.5 0 010 13zm51.6-38.7a19.4 19.4 0 100 38.7 19.4 19.4 0 000-38.7zm0 25.8a6.5 6.5 0 110-13 6.5 6.5 0 010 13zm45.2-51.6a19.4 19.4 0 100 38.7 19.4 19.4 0 000-38.7zm0 25.8a6.5 6.5 0 110-13 6.5 6.5 0 010 13zm6.4 38.7h12.9v12.9h-13v-13z"></path><path d="M135.5 348.4h12.9v12.9h-13v-13z"></path><path d="M122.6 361.3h12.9v12.9h-13v-13zM71 303.2h12.9v13h-13v-13zM393.5 90.3h-90.3a6.5 6.5 0 00-6.4 6.5v25.8c0 3.5 2.9 6.4 6.4 6.4h6.5v232.3a38.7 38.7 0 0077.4 0V129h6.4c3.6 0 6.5-2.9 6.5-6.4V96.8c0-3.6-2.9-6.5-6.5-6.5zm-45.1 296.8a25.8 25.8 0 01-25.8-25.8v-142h51.6v142a25.8 25.8 0 01-25.8 25.8zm25.8-180.6h-51.6V129h51.6v77.5zM387 116h-77.4v-12.9H387v13z"></path><path d="M335.5 354.8h12.9v13h-13v-13zm12.9-25.8h12.9v13h-13v-13zm-12.9-25.8h12.9v13h-13v-13zm12.9-25.8h12.9v13h-13v-13zm-12.9-25.8h12.9v13h-13v-13zM103.2 71c0-3.6 3-6.5 6.5-6.5H129v38.7h13V64.5h64.5v142h12.9v-142h19.3c3.6 0 6.5 3 6.5 6.5v135.5H258V71c0-10.7-8.7-19.4-19.4-19.4h-19.3v-6.4c0-3.6 2.8-6.5 6.4-6.5h77.4c3.6 0 6.5 3 6.5 6.5v32.2h12.9V45.2c0-10.7-8.7-19.4-19.4-19.4h-77.4a19.4 19.4 0 00-19.3 19.4v6.4h-64.6V19.4c0-3.6 3-6.5 6.5-6.5h219.3c3.6 0 6.5 2.9 6.5 6.5v58H387v-58C387 8.7 378.3 0 367.6 0H148.4A19.4 19.4 0 00129 19.4v32.2h-19.3A19.4 19.4 0 0090.3 71v32.2h13V71zM38.7 96.8a19.4 19.4 0 1038.8 0 19.4 19.4 0 00-38.8 0zm25.8 0a6.5 6.5 0 11-12.9 0 6.5 6.5 0 0113 0zM32.3 64.5A32.3 32.3 0 1032.2 0a32.3 32.3 0 000 64.6zm0-51.6a19.4 19.4 0 110 38.8 19.4 19.4 0 010-38.8zm-6.5 167.7a25.8 25.8 0 100-51.6 25.8 25.8 0 000 51.6zm0-38.7a13 13 0 110 25.9 13 13 0 010-25.9z"></path></g><defs><clippath id="clip0"><path fill="#fff" d="M0 0h400v400H0z"></path></clippath></defs>
  </symbol></svg>