<svg xmlns="http://www.w3.org/2000/svg" xmlns:xlink="http://www.w3.org/1999/xlink" style="width: 0; height: 0; visibility: hidden; position: absolute;" aria-hidden="true"><symbol  viewBox='0 0 400 400' id='facebook'>
    <path d="M58.6 400H189V257.8h-47V211h47v-58.6a58.7 58.7 0 0158.6-58.6h58.6v47h-47a23.4 23.4 0 00-23.4 23.4V211H304l-7.8 47H236v142h105.5a58.7 58.7 0 0058.6-58.6V58.6A58.7 58.7 0 00341.4 0H58.6A58.7 58.7 0 000 58.6v282.8A58.7 58.7 0 0058.6 400zM23.4 58.6a35.2 35.2 0 0135.2-35.2h282.8a35.2 35.2 0 0135.2 35.2v282.8a35.2 35.2 0 01-35.2 35.2h-82v-95.4h56.8l15.6-93.7h-72.4v-23.4h70.3V70.3h-82a82 82 0 00-82 82v35.2h-47v93.8h47v95.3H58.5a35.2 35.2 0 01-35.2-35.2V58.6z" fill="var(--fill-b, #fff)"></path>
  </symbol><symbol  viewBox='0 0 400 400' id='github'>
    <path d="M200 0C90 0 0 90.9 0 200.8A199.9 199.9 0 00200 400a200 200 0 00200-199.2C400 90.8 310 0 200 0zm35.2 373a173.6 173.6 0 01-70.4 0v-54.8c0-13.1 3.6-17.8 8.2-24.1 2.4-2.8 3.9-5.2 14.6-21.4l-18-2.8c-46.5-6.8-64.8-31-72-49.7a79.7 79.7 0 0112.4-76.4 14 14 0 002.8-13.6 69 69 0 01-.7-34.4c12.4 1.8 25.2 10.7 35.9 17 4.9 3 7.5 2.2 9.8 2.4 8.6-1.7 22-6 42.4-6 12.7 0 26 1.8 39.2 5.6 2.3 0 6.1 2 12.6-2 11.2-6.7 23.5-15.3 35.9-17a69 69 0 01-.7 34.4 14 14 0 002.8 13.6 79.7 79.7 0 0112.4 76.4c-7.2 18.8-25.5 43-72 49.7l-18 2.8c11 16.7 12.3 18.7 14.6 21.4 4.6 6.3 8.2 11 8.2 24.1V373zm23.4-6.7v-48.1c0-13.4-2.8-22.3-6.6-28.8 35.7-9.6 61-30.7 72.2-61a103 103 0 00-13.3-96c3.5-15.8 3.5-40.8-5-52.6-3.7-5.1-8.9-8-15.4-8h-.3c-18.1 1-32.4 10.2-47.8 19.5a165.3 165.3 0 00-84.6 0c-16.1-9.7-30.3-18.5-49-19.4a18 18 0 00-14.7 8c-8.5 11.7-8.5 36.7-5 52.4a103.1 103.1 0 00-13.3 96.1c11.2 30.3 36.5 51.4 72.2 61a51 51 0 00-6.1 20.5 31.2 31.2 0 01-19.3 1.6 26 26 0 01-15-12.9C98.3 283 82.4 270.2 64.4 272l2 23.3c8.4-.7 16.7 8.1 21 15.4A49.2 49.2 0 00116 334a49.6 49.6 0 0025.4.6v31.7c-68.2-24-118-89.1-118-165.5 0-97 79.6-177.4 176.6-177.4s176.6 80.4 176.6 177.4c0 76.4-49.8 141.5-118 165.5z" fill="var(--fill-b, #fff)"></path>
  </symbol><symbol  viewBox='0 0 400 400' id='google-plus'>
    <path d="M376.6 141.4h-70.4v23.4h-23.4v70.4h23.4v23.4h70.4v-23.4H400v-70.4h-23.4v-23.4zm0 70.3H353v23.5h-23.4v-23.5h-23.4v-23.4h23.4v-23.5H353v23.5h23.5v23.4zM129.7 71A129.4 129.4 0 000 200c0 71 58.2 129 129.7 129a129.4 129.4 0 00127.1-154.8l-2-9.4h-72.6l47.7-47.7c-3.8-2.6-36.6-46-100.2-46zm49.8 63.3a84.1 84.1 0 00-49.8-16.3 82.7 82.7 0 00-82.8 82c0 45.2 37.4 82 82.8 82a83.1 83.1 0 0078.1-54.6l5.6-15.7h-72v-23.4h93.9a106 106 0 01-105.6 117.2A106 106 0 0123.4 200 106 106 0 01129.7 94.5c24.3 0 48 8.3 66.6 23.1l-16.8 16.7zm-2.3 100.9a60.6 60.6 0 01-47.5 23.4A59 59 0 0170.3 200a59 59 0 0159.4-58.6c30.6 0 45.4 21.3 48.4 23.4H118v70.4h59.2z" fill="var(--fill-b, #fff)"></path>
  </symbol><symbol  viewBox='0 0 400 400' id='instagram'>
    <path d="M58.6 400h282.8a58.7 58.7 0 0058.6-58.6V58.6A58.7 58.7 0 00341.4 0H58.6A58.7 58.7 0 000 58.6v282.8A58.7 58.7 0 0058.6 400zM23.4 58.6a35.2 35.2 0 0135.2-35.2h282.8a35.2 35.2 0 0135.2 35.2v282.8a35.2 35.2 0 01-35.2 35.2H58.6a35.2 35.2 0 01-35.2-35.2V58.6z" fill="var(--fill-b, #fff)"></path><path d="M200 305.5a105.6 105.6 0 000-211 105.6 105.6 0 000 211zm0-187.5a82.1 82.1 0 010 164 82.1 82.1 0 010-164zm117.2 0a35.2 35.2 0 100-70.4 35.2 35.2 0 000 70.4zm0-47a11.7 11.7 0 110 23.6 11.7 11.7 0 010-23.5z" fill="var(--fill-b, #fff)"></path>
  </symbol><symbol  viewBox='0 0 400 400' id='twitter'>
    <g clip-path="url(#clip0)"><path d="M400 80.4l-27.5 1.3 15-42.5S340.8 56.3 329 59.4a93.3 93.3 0 00-109.9-8.9 76.1 76.1 0 00-36.6 78.3A203 203 0 0151 54.8L40 41.5l-8.3 15.1a91.5 91.5 0 00-9.7 61.6 88.5 88.5 0 008.5 24l-9.4-3.6-1.1 15.8a84.4 84.4 0 0014.3 50.2c2.8 4.3 6.5 9 11.1 13.7l-4.9-.7 6 18.1a88.1 88.1 0 0045.3 52.5 795 795 0 01-66.2 24L0 320.4l23.7 13c9 5 41 21.4 72.5 26.4 70.1 11 149.1 2 202.3-45.8 44.7-40.4 59.4-97.7 56.4-157.4a37 37 0 017-24.3c9.9-13.2 38-51.9 38.1-52zm-56.9 38c-8.2 11-12.4 25-11.6 39.5 3 60.2-13.3 106.9-48.7 138.8-41.4 37.2-108 51.8-183 40a181.5 181.5 0 01-39.2-11.6c23.6-8 41.7-15.3 71-29.2l41-19.3-45.2-3a64 64 0 01-50.8-28.9 81 81 0 0017.2-2.8l43.1-12-43.4-10.7a64.7 64.7 0 01-48.1-46.4c4.3 1.2 9.4 2 17.6 2.8l40.2 4-31.8-24.9A67 67 0 0145.9 84c71.7 74.4 155.9 68.8 164.3 70.8-1.8-18.1-1.9-18.2-2.4-20a53.8 53.8 0 0123.7-64.3c22.4-13.8 58-15.9 82.6 6.8a21 21 0 0019.2 5.2c6-1.5 11-3.1 15.9-4.9L339 106.5h13l-8.9 11.9z" fill="var(--fill-b, #fff)"></path></g><defs><clippath id="clip0"><path fill="var(--fill-b, #fff)" d="M0 0h400v400H0z"></path></clippath></defs>
  </symbol></svg>