<svg xmlns="http://www.w3.org/2000/svg" xmlns:xlink="http://www.w3.org/1999/xlink" style="width: 0; height: 0; visibility: hidden; position: absolute;" aria-hidden="true"><symbol  viewBox='0 0 400 400' id='close_btn'>
    <g clip-path="url(#clip0)" fill="var(--fill-b, #fff)"><path d="M200 0C89.7 0 0 89.7 0 200s89.7 200 200 200 200-89.7 200-200S310.3 0 200 0zm0 357.9A158 158 0 0142.1 200 158 158 0 01200 42.1 158 158 0 01357.9 200 158 158 0 01200 357.9z"></path><path d="M298.2 101.8a21 21 0 00-29.8 0l-69 69-68-68a21 21 0 00-29.8 29.8l68 68-67 67a21 21 0 1029.8 29.8l67-67 68 68a21 21 0 0029.8 0 21 21 0 000-29.8l-68-68 69-69a21 21 0 000-29.8z"></path></g><defs><clippath id="clip0"><path fill="var(--fill-b, #fff)" d="M0 0h400v400H0z"></path></clippath></defs>
  </symbol><symbol  viewBox='0 0 400 400' id='left_btn'>
    <g clip-path="url(#clip0)" fill="var(--fill-b, #fff)"><path d="M58.6 341.4c37.8 37.8 88 58.6 141.4 58.6 53.4 0 103.6-20.8 141.4-58.6 37.8-37.8 58.6-88 58.6-141.4 0-53.4-20.8-103.6-58.6-141.4A198.7 198.7 0 00200 0 198.7 198.7 0 0058.6 58.6 198.7 198.7 0 000 200c0 53.4 20.8 103.6 58.6 141.4zM200 24.7c96.6 0 175.3 78.7 175.3 175.3 0 96.6-78.7 175.3-175.3 175.3A175.5 175.5 0 0124.7 200c0-96.6 78.7-175.3 175.3-175.3z"></path><path d="M240.6 288.2L152.8 200l87.8-88.2-17.5-17.4L117.8 200l105.3 105.6 17.5-17.4z"></path></g><defs><clippath id="clip0"><path transform="rotate(-180 400 400)" fill="var(--fill-b, #fff)" d="M400 400h400v400H400z"></path></clippath></defs>
  </symbol><symbol  viewBox='0 0 400 400' id='menu_btn'>
    <path d="M0 62.6a32.3 32.3 0 0132.3-32.3h335.4a32.3 32.3 0 010 64.6H32.3A32.3 32.3 0 010 62.6zm367.7 105H32.3a32.3 32.3 0 000 64.7h335.4a32.3 32.3 0 000-64.6zm0 137.5H32.3a32.3 32.3 0 000 64.6h335.4a32.3 32.3 0 000-64.6z" fill="var(--fill-b, #fff)"></path>
  </symbol><symbol  viewBox='0 0 400 400' id='right_btn'>
    <g clip-path="url(#clip0)" fill="var(--fill-b, #fff)"><path d="M341.4 58.6A198.7 198.7 0 00200 0 198.7 198.7 0 0058.6 58.6 198.7 198.7 0 000 200c0 53.4 20.8 103.6 58.6 141.4 37.8 37.8 88 58.6 141.4 58.6 53.4 0 103.6-20.8 141.4-58.6 37.8-37.8 58.6-88 58.6-141.4 0-53.4-20.8-103.6-58.6-141.4zM200 375.3A175.5 175.5 0 0124.7 200c0-96.6 78.7-175.3 175.3-175.3 96.6 0 175.3 78.7 175.3 175.3 0 96.6-78.7 175.3-175.3 175.3z"></path><path d="M159.4 111.8l87.8 88.2-87.8 88.2 17.5 17.4L282.2 200 176.9 94.4l-17.5 17.4z"></path></g><defs><clippath id="clip0"><path fill="var(--fill-b, #fff)" d="M0 0h400v400H0z"></path></clippath></defs>
  </symbol></svg>